# xmcd
#
# Track frame offsets: 
#        150
#        14016
#        28465
#        41153
#        55155
#        67306
#        78905
#        92140
#        104740
#        118090
#        131489
#        143999
#        157579
#        173318
#        186556
#        200057
#        210895
#        225284
#        238766
#        251962
#        264572
#        277983
#        292213
#        303675
#
# Disc length: 4247 seconds
#
# Revision: 3
# Processed by: cddbd v1.5.2PL0 Copyright (c) Steve Scherf et al.
# Submitted via: ExactAudioCopy v0.95b3
#
DISCID=6f109518
DTITLE=Sonny Boy Williamson I - Good Morning, Little Schoolgirl
DYEAR=2004
DGENRE=Blues
TTITLE0=Bring Another Half Pint
TTITLE1=You Give An Account
TTITLE2=I Been Dealing With The Devil
TTITLE3=Blue Bird Blues
TTITLE4=New Early In The Morning
TTITLE5=Mellow Chick Swing
TTITLE6=I'm Tired, Trucking My Blues Away
TTITLE7=Little Low Woman
TTITLE8=Sugar Mama
TTITLE9=Shotgun Blues
TTITLE10=You've Been Foolin' Around Town
TTITLE11=Sugar Gal
TTITLE12=Decoration Blues
TTITLE13=Stop Breakin' Down
TTITLE14=My Little Machine
TTITLE15=Apple Tree Swing
TTITLE16=You're An Old Lady
TTITLE17=Good Morning, Little Schoolgirl
TTITLE18=Whiskey Head Blues
TTITLE19=Good Gravy
TTITLE20=Suzanna Blues
TTITLE21=Goodbye Red
TTITLE22=Got The Bottle Up and Gone
TTITLE23=Tell Me Baby
EXTD=Catfish  KATCD125
EXTT0=
EXTT1=
EXTT2=
EXTT3=
EXTT4=
EXTT5=
EXTT6=
EXTT7=
EXTT8=
EXTT9=
EXTT10=
EXTT11=
EXTT12=
EXTT13=
EXTT14=
EXTT15=
EXTT16=
EXTT17=
EXTT18=
EXTT19=
EXTT20=
EXTT21=
EXTT22=
EXTT23=
PLAYORDER=
